<svg width="539" height="546" viewBox="0 0 539 546" fill="none" xmlns="http://www.w3.org/2000/svg">
<path d="M269.5 273C354.561 273 423.5 211.895 423.5 136.5C423.5 61.1051 354.561 0 269.5 0C184.439 0 115.5 61.1051 115.5 136.5C115.5 211.895 184.439 273 269.5 273ZM377.3 307.125H357.208C330.498 318.002 300.781 324.188 269.5 324.188C238.219 324.188 208.622 318.002 181.792 307.125H161.7C72.4281 307.125 0 371.323 0 450.45V494.812C0 523.072 25.8672 546 57.75 546H481.25C513.133 546 539 523.072 539 494.812V450.45C539 371.323 466.572 307.125 377.3 307.125Z" fill="black"/>
</svg>
