<svg xmlns="http://www.w3.org/2000/svg" viewBox="0 0 48 48"><title>papers</title><g id="papers"><path d="M41,0H11a1,1,0,0,0-1,1V4H7A1,1,0,0,0,6,5V47a1,1,0,0,0,1,1H37a1,1,0,0,0,1-1V44h3a1,1,0,0,0,1-1V1A1,1,0,0,0,41,0ZM36,46H8V6H28v7a1,1,0,0,0,1,1h7ZM30,7.41,34.59,12H30ZM40,42H38c0-31,.14-29.28-.29-29.71C29.08,3.66,29.61,4,29.06,4,28.76,4,27,4,12,4V2H40Z"/><path d="M32,22H12a1,1,0,0,0,0,2H32A1,1,0,0,0,32,22Z"/><path d="M32,17H12a1,1,0,0,0,0,2H32A1,1,0,0,0,32,17Z"/><path d="M32,27H12a1,1,0,0,0,0,2H32A1,1,0,0,0,32,27Z"/><path d="M32,32H12a1,1,0,0,0,0,2H32A1,1,0,0,0,32,32Z"/><path d="M22,37H12a1,1,0,0,0,0,2H22A1,1,0,0,0,22,37Z"/></g></svg>